# xmcd
# Track frame offsets:
# 150
# 20355
# 35901
# 48209
# 64226
# 77339
# 98815
# 109607
# 120010
# 137258
# 151885
# 161065
# 172792
# 186276
# 199458
# 212548
#
# Disc length: 3069 seconds
# Revision: 0
# Processed by: cddbd v1.4PL0 Copyright (c) Steve Scherf et al.
# Submitted via: VisiTrax 2.9.5.180 - For more info visit www.synapsa.com
#
DISCID=c40bfb10
DTITLE=Wim Pols - Country Christmas
DYEAR=1900
DGENRE=Christmas
TTITLE0=That is christmas
TTITLE1=The christmas gift
TTITLE2=A cowboy's Rocky mountain christmas
TTITLE3=Silent night
TTITLE4=For us to take today
TTITLE5=Christmas is for all
TTITLE6=Christmas wish
TTITLE7=Cold winternight
TTITLE8=There is a reason
TTITLE9=The love you give to me
TTITLE10=Go tell it on the mountin
TTITLE11=Light a candle
TTITLE12=The plan
TTITLE13=Last month of the year
TTITLE14=Away in a manger
TTITLE15=Voices singing
EXTD=
EXTT0=
EXTT1=
EXTT2=
EXTT3=
EXTT4=
EXTT5=
EXTT6=
EXTT7=
EXTT8=
EXTT9=
EXTT10=
EXTT11=
EXTT12=
EXTT13=
EXTT14=
EXTT15=
PLAYORDER=
